<svg width="200" height="200" fill="#000000" xmlns="http://www.w3.org/2000/svg" xmlns:xlink="http://www.w3.org/1999/xlink" version="1.1" x="0px" y="0px" viewBox="0 0 50 50" enable-background="new 0 0 50 50" xml:space="preserve"><g><path fill="#000000" d="M40.092,16.597L40.092,16.597l-0.308-0.324c-0.072-0.08-0.15-0.161-0.223-0.237h-0.006L26.449,2.226   l-13.104,13.81l0,0c-0.014,0.016-0.032,0.032-0.048,0.046l-0.232,0.25l-0.25,0.266l0,0l-0.01,0.01   c-3.153,3.435-4.888,7.883-4.888,12.523c0,10.221,8.314,18.531,18.533,18.531c10.223,0,18.539-8.311,18.539-18.531   c0-4.639-1.735-9.087-4.886-12.523L40.092,16.597z M26.452,44.427c-8.435,0-15.3-6.864-15.3-15.296c0-3.593,1.269-7.054,3.576-9.81   l0.596-0.666c0.085-0.115,0.205-0.23,0.326-0.338l0,0L26.449,6.931l10.812,11.386l0,0c0.115,0.113,0.232,0.223,0.32,0.338   l0.504,0.666h0.086c2.315,2.761,3.576,6.217,3.576,9.81C41.754,37.562,34.887,44.427,26.452,44.427z"/><path fill="#000000" d="M17.154,30.224l-3.061,1.054c1.875,5.443,6.485,9.543,12.028,10.708l0.661-3.17   C22.352,37.888,18.659,34.596,17.154,30.224z"/></g></svg>